<svg id="图层_1" data-name="图层 1" xmlns="http://www.w3.org/2000/svg" viewBox="0 0 3211.68 285.53"><defs><style>.cls-1{fill:#77c4ee;}.cls-2{fill:#57aadf;}.cls-3{fill:#040000;}.cls-4{fill:#555858;}</style></defs><path class="cls-1" d="M3036.31,283.47h-51V45.38A45.35,45.35,0,0,1,3030.64,0h154.21l-37.14,45.33h-97.23a14.17,14.17,0,0,0-14.17,14.15Z" transform="translate(-6.04)"/><path class="cls-2" d="M3183.81,0,3071.13,136.73a28.34,28.34,0,0,0-.26,35.73l95.83,111h51s-82.23-103.47-99.07-124a5.68,5.68,0,0,1,0-7.18c29.39-36.12,62-75.15,91.34-111.27,5.84-7.73,6.64-19.87,1.44-28.57C3204.66,1.1,3191.68.1,3190.55,0Z" transform="translate(-6.04)"/><path class="cls-1" d="M2687.63,238.14h119.11l0,45.32H2667.8a45.36,45.36,0,0,1-45.35-45.36l0-238.07h51l0,223.93A14.18,14.18,0,0,0,2687.63,238.14Z" transform="translate(-6.04)"/><path class="cls-1" d="M2891.74,45.38H2730.17l0-45.31,180.67.3a46.13,46.13,0,0,1,46.13,46.13V238.43a45.36,45.36,0,0,1-45.34,45.36l-76.55-.3V238.14h56.69A14.18,14.18,0,0,0,2905.92,224V59.56A14.18,14.18,0,0,0,2891.74,45.38Z" transform="translate(-6.04)"/><path class="cls-3" d="M2887.9,63.89" transform="translate(-6.04)"/><path class="cls-4" d="M44.42,187.17,27.71,238H6l55-161.76H86.19L141.43,238H119.09l-17.32-50.84Zm53.12-16.33-16-46.56C78,113.7,75.59,104.06,73.19,94.77h-.56c-2.32,9.46-4.84,19.34-8,29.23L48.67,170.84Z" transform="translate(-6.04)"/><path class="cls-4" d="M173.37,183.79c.42,28.53,18.53,40.3,39.72,40.3,15.11,0,24.35-2.71,32.15-6l3.7,15c-7.38,3.38-20.29,7.4-38.73,7.4-35.66,0-57.11-23.76-57.11-58.58,0-35.18,20.72-62.65,54.62-62.65,37.86,0,47.77,33.23,47.77,54.59a51.27,51.27,0,0,1-.73,9.9Zm61.78-15.19c.21-13.3-5.44-34.17-29.11-34.17-21.55,0-30.73,19.48-32.41,34.17Z" transform="translate(-6.04)"/><path class="cls-4" d="M278.81,216.52c6.36,4,17.46,8.27,28,8.27,15.41,0,22.55-7.58,22.55-17.29,0-10.15-6.14-15.47-21.57-21.25-21-7.59-30.9-19-30.84-32.91,0-18.7,15.19-34,40.15-34,11.81,0,22,3.2,28.43,7.14l-5.24,15.35A45.69,45.69,0,0,0,316.45,135c-12.45,0-19.22,7.18-19.22,15.93,0,9.6,6.82,13.89,22,19.79,20,7.46,30.39,17.54,30.45,34.88,0,20.57-16,35-43.41,35-12.71,0-24.46-3.29-32.62-8.09Z" transform="translate(-6.04)"/><path class="cls-4" d="M402.17,88.53v33.41H432.5v16H402.17v62.56c0,14.46,4.16,22.63,16,22.63a42.27,42.27,0,0,0,12.24-1.53l1,16c-4.1,1.61-10.65,2.9-18.86,2.9-9.7,0-17.76-3.2-22.78-8.93-5.82-6.41-8.2-16.65-8.2-30.28V137.93h-18v-16h18V94Z" transform="translate(-6.04)"/><path class="cls-4" d="M456.27,67.61h21v72.46h.48a41.61,41.61,0,0,1,15.18-14.91,42.5,42.5,0,0,1,21.61-5.86c15.65,0,40.45,9.54,40.45,49.59V238H534V171.2c0-18.74-7.08-34.46-26.83-34.46-13.81,0-24.44,9.64-28.48,21.06a28.53,28.53,0,0,0-1.41,10.06V238h-21Z" transform="translate(-6.04)"/><path class="cls-4" d="M601.28,183.79c.42,28.53,18.53,40.3,39.73,40.3,15.1,0,24.34-2.71,32.15-6l3.69,15c-7.38,3.38-20.28,7.4-38.72,7.4C602.46,240.53,581,216.77,581,182c0-35.18,20.72-62.65,54.61-62.65,37.87,0,47.77,33.23,47.77,54.59a51.43,51.43,0,0,1-.72,9.9Zm61.79-15.19c.21-13.3-5.45-34.17-29.12-34.17-21.55,0-30.72,19.48-32.41,34.17Z" transform="translate(-6.04)"/><path class="cls-4" d="M735,88.53v33.41h30.34v16H735v62.56c0,14.46,4.17,22.63,16,22.63a42.2,42.2,0,0,0,12.23-1.53l1,16c-4.1,1.61-10.66,2.9-18.86,2.9-9.7,0-17.77-3.2-22.79-8.93-5.81-6.41-8.19-16.65-8.19-30.28V137.93h-18v-16h18V94Z" transform="translate(-6.04)"/><path class="cls-4" d="M812.74,89.13c0,7.18-5,13.12-13.43,13.12-7.64,0-12.76-5.94-12.74-13.12A12.82,12.82,0,0,1,799.69,76C807.57,76,812.68,81.76,812.74,89.13ZM789.15,238V121.94h21V238Z" transform="translate(-6.04)"/><path class="cls-4" d="M928.07,233.81c-5.55,2.72-17.68,6.72-33.3,6.72-35,0-57.92-23.82-57.92-59.3,0-35.78,24.4-61.89,62.36-61.89,12.45,0,23.65,3.15,29.34,6.18l-4.69,16.22c-5.17-2.76-13.07-5.59-24.69-5.59-26.48,0-41,19.85-40.94,44,0,26.89,17.28,43.43,40.43,43.43A61.35,61.35,0,0,0,924.5,218Z" transform="translate(-6.04)"/><path class="cls-4" d="M1025.36,93.9H976.08V76.25h119.79V93.9h-49.51V238h-21Z" transform="translate(-6.04)"/><path class="cls-4" d="M1102.31,158.09c0-13.7-.35-25.38-1-36.15h18.5l.8,22.77h.75c5.42-15.57,18.22-25.41,32.32-25.41a24.1,24.1,0,0,1,5.88.6v19.85a33.85,33.85,0,0,0-7.18-.61c-14.88,0-25.39,11.21-28.26,27a55.63,55.63,0,0,0-.85,9.86v62h-21Z" transform="translate(-6.04)"/><path class="cls-4" d="M1244,238l-1.86-14.66h-.63c-6.37,9.06-18.89,17.3-35.51,17.3-23.45,0-35.45-16.64-35.45-33.3,0-28.12,24.92-43.56,69.76-43.24v-2.47c0-9.43-2.66-26.9-26.43-26.78-10.8,0-22.1,3.23-30.24,8.66l-4.79-14c9.61-6.2,23.66-10.18,38.31-10.18,35.48,0,44.13,24.26,44.13,47.51v43.43A181.63,181.63,0,0,0,1263,238Zm-3.28-59.27c-22.84-.48-49,3.62-49,26.07,0,13.85,9.12,20.21,19.71,20.21,15.29,0,24.92-9.63,28.29-19.44a22,22,0,0,0,1-6.65Z" transform="translate(-6.04)"/><path class="cls-4" d="M1295.31,153.29c0-12.11-.4-21.73-1-31.35H1313l1.16,19.09h.59c5.71-10.9,19.21-21.73,38.38-21.73,15.95,0,40.91,9.6,40.91,49.47V238h-21V171.09c0-18.76-7.07-34.48-26.83-34.48-13.85,0-24.65,9.85-28.44,21.67a32.92,32.92,0,0,0-1.45,9.79V238h-21Z" transform="translate(-6.04)"/><path class="cls-4" d="M1425.52,216.52c6.36,4,17.46,8.27,28,8.27,15.42,0,22.56-7.58,22.56-17.29,0-10.15-6.14-15.47-21.57-21.25-21-7.59-30.9-19-30.84-32.91,0-18.7,15.19-34,40.15-34,11.81,0,22,3.2,28.43,7.14L1487,141.79a45.62,45.62,0,0,0-23.81-6.83c-12.45,0-19.22,7.18-19.22,15.93,0,9.6,6.82,13.89,22,19.79,20,7.46,30.4,17.54,30.46,34.88,0,20.57-16,35-43.41,35-12.71,0-24.46-3.29-32.62-8.09Z" transform="translate(-6.04)"/><path class="cls-4" d="M1523.5,159.75c0-14.79-.39-26.85-1-37.81h18.86l1.17,19.79h.48c8.44-14.16,22.34-22.43,41.2-22.43,28.1,0,49.27,23.67,49.27,58.9,0,41.84-25.59,62.45-52.78,62.45-15.52,0-28.86-6.75-35.77-18.28h-.48v63.16h-21Zm21,31a39.27,39.27,0,0,0,.91,8.59A32.44,32.44,0,0,0,1577,224.11c22.38,0,35.3-18.35,35.3-45,0-23.16-12.14-43.08-34.48-43.08-14.37,0-27.94,10.18-31.94,26.05a36.52,36.52,0,0,0-1.35,8.58Z" transform="translate(-6.04)"/><path class="cls-4" d="M1765.4,178.86c0,43-29.82,61.79-57.72,61.79-31.48,0-55.8-22.94-55.8-59.79,0-38.84,25.54-61.56,57.64-61.56C1742.89,119.3,1765.4,143.51,1765.4,178.86Zm-92,1.35c0,25.46,14.58,44.63,35.18,44.63,20.24,0,35.37-18.91,35.37-45.26,0-19.63-9.9-44.46-35-44.46C1684.14,135.12,1673.37,158.2,1673.37,180.21Z" transform="translate(-6.04)"/><path class="cls-4" d="M1792.06,158.09c0-13.7-.35-25.38-1-36.15h18.5l.8,22.77h.75c5.42-15.57,18.22-25.41,32.33-25.41a24.07,24.07,0,0,1,5.87.6v19.85a33.79,33.79,0,0,0-7.18-.61c-14.88,0-25.39,11.21-28.26,27a55.63,55.63,0,0,0-.85,9.86v62h-21Z" transform="translate(-6.04)"/><path class="cls-4" d="M1901.67,88.53v33.41H1932v16h-30.33v62.56c0,14.46,4.16,22.63,16,22.63a42.14,42.14,0,0,0,12.23-1.53l1,16c-4.1,1.61-10.66,2.9-18.86,2.9-9.7,0-17.76-3.2-22.79-8.93-5.81-6.41-8.19-16.65-8.19-30.28V137.93h-18v-16h18V94Z" transform="translate(-6.04)"/><path class="cls-4" d="M2020.13,238l-1.86-14.66h-.63c-6.38,9.06-18.89,17.3-35.51,17.3-23.45,0-35.46-16.64-35.46-33.3,0-28.12,24.92-43.56,69.76-43.24v-2.47c0-9.43-2.65-26.9-26.43-26.78-10.8,0-22.1,3.23-30.24,8.66l-4.79-14c9.62-6.2,23.67-10.18,38.31-10.18,35.48,0,44.13,24.26,44.13,47.51v43.43a180.29,180.29,0,0,0,1.76,27.77Zm-3.29-59.27c-22.84-.48-49,3.62-49,26.07,0,13.85,9.11,20.21,19.71,20.21,15.28,0,24.92-9.63,28.28-19.44a22,22,0,0,0,1-6.65Z" transform="translate(-6.04)"/><path class="cls-4" d="M2095.83,88.53v33.41h30.33v16h-30.33v62.56c0,14.46,4.16,22.63,16,22.63a42.2,42.2,0,0,0,12.23-1.53l1,16c-4.1,1.61-10.66,2.9-18.86,2.9-9.7,0-17.76-3.2-22.79-8.93-5.81-6.41-8.19-16.65-8.19-30.28V137.93h-18v-16h18V94Z" transform="translate(-6.04)"/><path class="cls-4" d="M2173.52,89.13c0,7.18-5,13.12-13.43,13.12-7.64,0-12.76-5.94-12.74-13.12A12.82,12.82,0,0,1,2160.47,76C2168.35,76,2173.46,81.76,2173.52,89.13ZM2149.93,238V121.94h21V238Z" transform="translate(-6.04)"/><path class="cls-4" d="M2311.15,178.86c0,43-29.82,61.79-57.72,61.79-31.48,0-55.8-22.94-55.8-59.79,0-38.84,25.54-61.56,57.64-61.56C2288.64,119.3,2311.15,143.51,2311.15,178.86Zm-92,1.35c0,25.46,14.58,44.63,35.18,44.63,20.24,0,35.37-18.91,35.37-45.26,0-19.63-9.9-44.46-35-44.46C2229.89,135.12,2219.12,158.2,2219.12,180.21Z" transform="translate(-6.04)"/><path class="cls-4" d="M2337.85,153.29c0-12.11-.4-21.73-1-31.35h18.65L2356.7,141h.59c5.71-10.9,19.21-21.73,38.38-21.73,15.95,0,40.91,9.6,40.91,49.47V238h-21V171.09c0-18.76-7.07-34.48-26.83-34.48-13.85,0-24.65,9.85-28.44,21.67a32.92,32.92,0,0,0-1.45,9.79V238h-21Z" transform="translate(-6.04)"/><path class="cls-4" d="M2466,225.6c0-8.86,5.94-15.23,14.31-15.23s14.12,6.28,14.18,15.23c0,8.47-5.62,15.05-14.32,15.05C2471.81,240.65,2465.9,234.07,2466,225.6Z" transform="translate(-6.04)"/></svg>