<?xml version="1.0" encoding="utf-8"?>
<!-- Generator: Adobe Illustrator 26.0.2, SVG Export Plug-In . SVG Version: 6.00 Build 0)  -->
<svg version="1.1" id="图层_1" xmlns="http://www.w3.org/2000/svg" xmlns:xlink="http://www.w3.org/1999/xlink" x="0px" y="0px"
	 viewBox="0 0 1015 213" style="enable-background:new 0 0 1015 213;" xml:space="preserve">
<style type="text/css">
	.st0{fill:#77C4EE;}
	.st1{fill:#57AADF;}
	.st2{fill:#808080;}
	.st3{fill:#565858;}
</style>
<g id="图层_2_00000068663105814868522070000006579502365631434920_">
	<g id="图层_1-2">
		<path class="st0" d="M241.9,193.7h-29.8V30.9c0-6.9,5.5-11.4,14.6-11.4h107.8c9.4,1.6,14.9,13.6,14.9,28.3H244.7
			c-1.6,0-2.8,1.3-2.8,2.8L241.9,193.7z"/>
		<path class="st1" d="M334.4,19.5l-62.7,89.8c0,0-3.1,4.4-3.1,6.5s3.5,7.4,3.5,7.4l45.8,70.4h31.3l-47.8-73.5c0,0-2-2.6-2-4.3
			s1.8-3.8,1.8-3.8l32.6-44.1l15.3-20.2c7.6-10.3,2.6-19.4-3.4-24.5C342.6,20.7,338.6,19.3,334.4,19.5z"/>
		<path class="st0" d="M36.4,166.4h75.5v27.3H12.2c-6.8-0.1-12.3-5.7-12.2-12.6V19.5h33.6v144.1C33.6,165.1,34.9,166.4,36.4,166.4z"
			/>
		<path class="st0" d="M164.1,47.8H68.7V19.5h116.8c6.4,0,12,5.5,12,10.1v153c0,6.1-4.9,11-11,11h-62.2v-27.2h39.8
			c1.6,0,2.8-1.3,2.8-2.8v-113C167,49,165.7,47.8,164.1,47.8z"/>
		<path class="st2" d="M448.6,163.8c-9.2-2.2-16.1-4.9-20.6-8.2c-4.6,3.3-11.6,6.2-21.1,8.6l-1.8-3.5c8.9-2,15.6-4.5,20-7.5
			c-3.3-3.3-6.1-7-8.3-11.1l3.1-1.6c2.1,3.9,4.8,7.4,8.1,10.4c3.2-3.1,5.8-6.8,7.7-10.8l3.4,1.5c-2.1,4.2-4.8,8.1-8.2,11.5
			c4.5,3.1,11.1,5.5,19.7,7.2C449.9,161.5,449.2,162.7,448.6,163.8z M405.6,130.1V127h21.7c-0.8-1.9-1.8-3.7-3-5.4l3.8-1.1
			c1,1.7,2.1,3.6,3.2,5.7l-2.3,0.8h21.4v3.2L405.6,130.1z M408.1,144.9l-2.2-3c5.1-2.7,9.9-6,14.3-9.7l2.8,2.6
			C418.1,138.5,413.1,141.9,408.1,144.9z M447.6,144.1c-4.7-3.3-9.6-6.4-14.5-9.4l2.2-2.6c5.1,3,10,6,14.7,9L447.6,144.1z"/>
		<path class="st2" d="M459,163l-2-3c1.9-1.9,4-3.8,6.2-5.7v-15h-5.5v-3.1h8.8v17.9c2.7,3.8,6.5,5.6,11.5,5.4c3.4,0,7.7,0,12.9,0.1
			s9.5,0,13-0.1c-0.5,1.2-0.9,2.2-1.2,3.1c-4.4,0-9,0-14,0s-9-0.1-12-0.2c-4.6,0.2-9.1-1.8-11.9-5.5
			C462.6,159.2,460.7,161.2,459,163z M466.8,131.2c-2.1-2.4-4.4-5-7-7.7l2.7-1.8l3.6,3.6c1.4,1.4,2.7,2.7,3.7,3.9L466.8,131.2z
			 M491.1,156.9c-0.1-1-0.3-1.9-0.6-2.8c1.2,0.1,2.5,0.1,3.9,0.1c2.1,0.2,3.1-0.9,3-3.2v-1.4h-9.1v6.6H485v-6.6h-9.1v7.3h-3.4v-24.4
			h11.9c-2.9-1.6-5.8-3.1-8.5-4.5l2-1.9c2.7,1.3,5.4,2.8,8.1,4.2l9.5-4.9h-23.9v-2.6h28.7v3.1l-11.4,6c0.3,0.2,0.6,0.4,0.9,0.5h11
			v19.2c0.2,3.4-1.6,5.1-5.3,5.2C493.8,156.9,492.4,156.9,491.1,156.9L491.1,156.9z M475.8,134.9v4.8h9.2v-4.8H475.8z M475.8,142.2
			v4.8h9.2v-4.8L475.8,142.2z M497.4,134.9h-9.1v4.8h9.1V134.9z M488.3,142.2v4.8h9.1v-4.8L488.3,142.2z"/>
		<path class="st2" d="M511.4,151.9v-2.8H531c0.2-1.1,0.4-2.1,0.6-3.2h3.5c-0.2,1.2-0.4,2.2-0.6,3.2h20.4v2.8h-19
			c1.7,2.6,4.1,4.6,7,5.8c3.1,1.3,7.5,2.3,13.2,3c-0.7,1-1.2,2.1-1.8,3.2c-4.7-0.7-9.3-2-13.7-3.9c-3.1-1.3-5.7-3.6-7.4-6.5
			c-1.4,2.9-3.8,5.2-6.7,6.6c-3.3,1.7-8.2,3.1-14.8,4.3c-0.5-1.1-1.1-2.2-1.8-3.2c6.2-0.9,10.9-2.1,14-3.5c3.1-1.4,5.2-3.4,6.1-5.8
			L511.4,151.9z M512.1,129.5v-2.8h13.1c-1.3-1.5-3-3.3-5.1-5.3l3.2-1.3c2.1,1.9,3.8,3.6,5.3,5.2l-3.2,1.4h11.8
			c2.5-2.5,4.5-4.7,5.9-6.5l3.5,1.3c-1.6,1.7-3.2,3.4-4.9,5.2h12.7v2.8h-19.4v4.5H552v2.7h-17.1v4.7h20.7v2.6h-45v-2.7h20.7v-4.7
			h-16.9V134h16.9v-4.5L512.1,129.5z"/>
		<path class="st2" d="M562.9,151.9v-3.1H585v-2.3l9.6-5.3h-23v-3h27.8v3.3l-10.8,6.1v1.1h20.2v3.1h-20.1v6.3
			c0.2,3.8-1.8,5.7-5.9,5.6c-2.2,0-4.5,0-6.8,0.1c-0.2-1.1-0.4-2.3-0.7-3.6c2,0.1,4,0.2,6.2,0.2c2.6,0.2,3.7-1,3.5-3.4v-5.3
			L562.9,151.9z M564.3,139.1v-9h32.3l-3-1.6c2.3-2.5,4.4-5,6.3-7.5l3.5,1.6c-2.1,2.5-4.2,5-6.5,7.5h10.5v9h-3.6v-5.9H568v5.9H564.3
			z M573,129.4c-1.7-2.4-3.4-4.6-5.1-6.7l3.2-1.3c1.9,2.2,3.7,4.3,5.4,6.4L573,129.4z M585.7,128.6c-1.6-2.5-3.2-4.9-4.7-7l3.3-1.2
			c1.6,2.3,3.2,4.7,5,7L585.7,128.6z"/>
		<path class="st2" d="M616.1,126.3v-2.9h16.6v2.9h-6.9c-0.8,3.5-1.9,7-3.2,10.4h8.7v21h-9.1v3.6h-3.1v-17.7
			c-0.8,1.4-1.7,2.7-2.7,4.1c-0.5-1.1-1-2.2-1.5-3.3c1.8-2.5,3.3-5.2,4.5-8c1.3-3.3,2.3-6.6,3-10.1L616.1,126.3z M622.3,139.5v15.3
			h5.9v-15.3H622.3z M635.5,126.2v-3.1H660v3.1h-4.7v13.7h6.3v3.1h-6.3v21H652v-21h-9.4c0,4.1-0.7,8.2-2.1,12.1
			c-1.5,3.4-3.7,6.5-6.5,9.1c-1-0.8-1.9-1.6-2.8-2.3c2.6-2.2,4.6-4.9,6-7.9c1.3-2.7,2-6.3,2.1-11h-5.4v-3.1h5.5v-13.6H635.5z
			 M642.6,138.8v1.2h9.4v-13.7h-9.3L642.6,138.8z"/>
		<path class="st2" d="M669.7,142.3c-0.4-1-0.9-2-1.5-2.9c5.7-2.1,11.3-4.7,16.6-7.6l1.9,2.6C681.6,137.1,676,139.7,669.7,142.3z
			 M704.9,162.7c-4.1,0.2-6-1.6-5.8-5.2v-10.7h-11.6c-0.7,4.5-2.3,7.9-4.9,10.4c-2.6,2.5-6.7,4.8-12.2,6.9c-0.8-1.1-1.5-2.1-2.2-2.9
			c5.1-1.9,8.9-3.9,11.3-6c2.4-2.2,4-5.2,4.6-8.4h-12.4v-2.9h12.8c0.2-1.8,0.4-3.8,0.5-6h3.7c-0.2,2.2-0.3,4.2-0.6,6h14.5v13
			c-0.1,1.9,1,2.8,3.3,2.6h1.5c1.9,0.2,3-0.7,3.2-2.5s0.6-3.6,0.8-5.7c1.1,0.4,2.2,0.7,3.3,0.9c-0.2,2-0.4,4-0.9,6
			c-0.5,3.2-2.5,4.7-5.9,4.5L704.9,162.7z M669.5,133.7v-7.5h20.2c-0.8-1.7-1.7-3.4-2.5-5l3.7-0.9c0.8,1.5,1.8,3.3,2.8,5.4l-1.5,0.4
			h19.5v7.5H708v-4.4h-34.9v4.4L669.5,133.7z M710.9,142.2c-5.5-2.8-11-5.3-16.6-7.8l1.6-2.4c5.7,2.4,11.2,4.8,16.8,7.3L710.9,142.2
			z"/>
		<path class="st2" d="M722.8,163.9c-0.8-0.7-1.8-1.4-2.8-2.2c1.6-2.4,2.7-5,3.4-7.7c0.7-3.9,1-7.9,0.9-11.9v-18.1
			c5.4-0.3,10.7-1,16-1.9l1.4,3c-4.2,0.7-8.9,1.2-14,1.5v7.1h12.3v14.9h-12.5c-0.1,2.8-0.6,5.6-1.3,8.4
			C725.2,159.3,724.1,161.7,722.8,163.9z M736.5,136.5h-9v5.5c0,1.3,0,2.5,0,3.7h9.1L736.5,136.5z M740.1,164.2
			c-0.9-0.9-1.8-1.7-2.8-2.5c2.7-2.6,4.7-5.8,5.9-9.3c1.1-3.2,1.6-7.9,1.6-14v-14.4c6.7-0.2,13.5-0.9,20.1-2l1.3,3.2
			c-6.3,0.8-12.3,1.4-18,1.7v9.9h19v2.9h-7V164h-3.4v-24.2h-8.6c0,5.9-0.6,10.6-1.8,14.2C744.9,157.8,742.8,161.3,740.1,164.2
			L740.1,164.2z"/>
		<path class="st3" d="M417,86.3L412.8,99h-5.4l13.8-40.4h6.3L441.2,99h-5.6l-4.3-12.7L417,86.3z M430.3,82.2l-4-11.6
			c-0.9-2.6-1.5-5-2.1-7.4H424c-0.6,2.4-1.2,4.8-2,7.3l-4,11.7H430.3z"/>
		<path class="st3" d="M449.2,85.5c0.1,7.1,4.6,10.1,9.9,10.1c2.7,0.1,5.5-0.4,8-1.5l0.9,3.7c-3.1,1.3-6.4,1.9-9.7,1.8
			c-8.9,0-14.3-5.9-14.3-14.6s5.2-15.7,13.6-15.7c9.5,0,11.9,8.3,11.9,13.7c0,0.8,0,1.7-0.2,2.5H449.2z M464.6,81.7
			c0-3.3-1.4-8.5-7.3-8.5c-5.4,0-7.7,4.9-8.1,8.5H464.6z"/>
		<path class="st3" d="M475.6,93.7c2.1,1.3,4.5,2,7,2.1c3.9,0,5.6-1.9,5.6-4.3s-1.5-3.9-5.4-5.3c-5.2-1.9-7.7-4.8-7.7-8.2
			c0-4.7,3.8-8.5,10-8.5c2.5,0,4.9,0.6,7.1,1.8l-1.3,3.9c-1.8-1.1-3.9-1.7-6-1.7c-3.1,0-4.8,1.8-4.8,4c0,2.4,1.7,3.5,5.5,5
			c5,1.9,7.6,4.4,7.6,8.7c0,5.1-4,8.7-10.9,8.7c-2.8,0-5.7-0.6-8.2-2L475.6,93.7z"/>
		<path class="st3" d="M506.4,61.7V70h7.6v4h-7.6v15.7c0,3.6,1,5.7,4,5.7c1,0,2.1-0.1,3.1-0.4l0.2,4c-1.5,0.5-3.1,0.8-4.7,0.7
			c-2.1,0.1-4.2-0.7-5.7-2.2c-1.5-1.6-2-4.2-2-7.6V74h-4.5v-4h4.5v-7L506.4,61.7z"/>
		<path class="st3" d="M519.9,56.4h5.2v18.1h0.1c0.9-1.5,2.2-2.8,3.8-3.7c1.6-1,3.5-1.5,5.4-1.5c3.9,0,10.1,2.4,10.1,12.4V99h-5.2
			V82.3c0-4.7-1.8-8.6-6.7-8.6c-3.3,0.1-6.1,2.2-7.1,5.3c-0.3,0.8-0.4,1.7-0.3,2.5V99h-5.2L519.9,56.4z"/>
		<path class="st3" d="M556.2,85.5c0.1,7.1,4.6,10.1,9.9,10.1c2.7,0.1,5.5-0.4,8-1.5l0.9,3.7c-3.1,1.3-6.4,1.9-9.7,1.8
			c-8.9,0-14.3-5.9-14.3-14.6s5.2-15.7,13.7-15.7c9.5,0,11.9,8.3,11.9,13.7c0,0.8,0,1.7-0.2,2.5H556.2z M571.6,81.7
			c0-3.3-1.4-8.5-7.3-8.5c-5.4,0-7.7,4.9-8.1,8.5H571.6z"/>
		<path class="st3" d="M589.6,61.7V70h7.6v4h-7.6v15.7c0,3.6,1,5.7,4,5.7c1,0,2.1-0.1,3.1-0.4l0.2,4c-1.5,0.5-3.1,0.8-4.7,0.7
			c-2.1,0.1-4.2-0.7-5.7-2.2c-1.5-1.6-2-4.2-2-7.6V74H580v-4h4.5v-7L589.6,61.7z"/>
		<path class="st3" d="M609,61.8c0,1.8-1.5,3.3-3.3,3.3c-1.8,0-3.3-1.5-3.3-3.3c0-1.8,1.5-3.3,3.3-3.3c1.8,0,3.2,1.3,3.3,3.1
			C609,61.7,609,61.8,609,61.8z M603.1,99V70h5.2v29H603.1z"/>
		<path class="st3" d="M637.9,98c-2.6,1.2-5.5,1.7-8.3,1.7c-8.8,0-14.5-6-14.5-14.8s6.1-15.5,15.6-15.5c2.5,0,5,0.5,7.3,1.5
			l-1.2,4.1c-1.9-1-4-1.5-6.2-1.4c-6.6,0-10.2,5-10.2,11c0,6.7,4.3,10.9,10.1,10.9c2.2,0,4.5-0.5,6.5-1.5L637.9,98z"/>
		<path class="st3" d="M662.2,63h-12.3v-4.4h30V63h-12.4v36h-5.2V63z"/>
		<path class="st3" d="M681.4,79.1c0-3.4-0.1-6.3-0.2-9h4.6l0.2,5.7h0.2c1.4-3.9,4.6-6.3,8.1-6.3c0.5,0,1,0,1.5,0.2v5
			c-0.6-0.1-1.2-0.2-1.8-0.2c-3.7,0-6.3,2.8-7.1,6.8c-0.1,0.8-0.2,1.6-0.2,2.5V99h-5.2V79.1z"/>
		<path class="st3" d="M716.9,99l-0.5-3.7h-0.2c-2.1,2.8-5.4,4.4-8.9,4.3c-5.9,0-8.9-4.2-8.9-8.3c0-7,6.2-10.9,17.4-10.8v-0.6
			c0-2.3-0.7-6.7-6.6-6.7c-2.7,0-5.3,0.7-7.5,2.2l-1.2-3.5c2.9-1.7,6.2-2.6,9.6-2.5c8.9,0,11,6.1,11,11.9v10.9
			c0,2.3,0.1,4.6,0.4,6.9L716.9,99z M716,84.2c-5.7-0.1-12.2,0.9-12.2,6.5c0,3.5,2.3,5.1,4.9,5.1c3.2,0.1,6-1.9,7.1-4.9
			c0.2-0.5,0.3-1.1,0.3-1.7V84.2z"/>
		<path class="st3" d="M729.7,77.9c0-3-0.1-5.4-0.2-7.8h4.7l0.3,4.8h0.2c1.9-3.4,5.6-5.5,9.6-5.4c4,0,10.2,2.4,10.2,12.4V99h-5.2
			V82.3c0-4.7-1.8-8.6-6.7-8.6c-3.3,0.1-6.2,2.3-7.1,5.4c-0.2,0.8-0.4,1.6-0.4,2.4V99h-5.2V77.9z"/>
		<path class="st3" d="M762.2,93.7c2.1,1.3,4.5,2,7,2.1c3.9,0,5.6-1.9,5.6-4.3s-1.5-3.9-5.4-5.3c-5.2-1.9-7.7-4.8-7.7-8.2
			c0-4.7,3.8-8.5,10-8.5c2.5,0,4.9,0.6,7.1,1.8l-1.3,3.9c-1.8-1.1-3.9-1.7-6-1.7c-3.1,0-4.8,1.8-4.8,4c0,2.4,1.7,3.5,5.5,5
			c5,1.9,7.6,4.4,7.6,8.7c0,5.1-4,8.7-10.8,8.7c-2.8,0-5.7-0.6-8.2-2L762.2,93.7z"/>
		<path class="st3" d="M786.7,79.5c0-3.7-0.1-6.7-0.2-9.4h4.7l0.3,4.9h0.1c2.1-3.6,6.1-5.8,10.3-5.6c7,0,12.3,5.9,12.3,14.7
			c0,10.5-6.4,15.6-13.2,15.6c-3.9,0-7.2-1.7-9-4.6H792v15.8h-5.2L786.7,79.5z M792,87.2c0,0.7,0.1,1.4,0.2,2.1
			c0.9,3.6,4.1,6.2,7.9,6.2c5.6,0,8.8-4.6,8.8-11.2c0-5.8-3-10.8-8.6-10.8c-3.8,0.1-7.1,2.8-8,6.5c-0.2,0.7-0.3,1.4-0.3,2.2
			L792,87.2z"/>
		<path class="st3" d="M847.2,84.2c0,10.7-7.5,15.4-14.4,15.4c-7.9,0-14-5.7-14-14.9c0-9.7,6.4-15.4,14.4-15.4
			C841.6,69.4,847.2,75.4,847.2,84.2z M824.2,84.6c0,6.4,3.7,11.2,8.8,11.2s8.8-4.7,8.8-11.3c0-4.9-2.5-11.1-8.8-11.1
			S824.2,79.1,824.2,84.6L824.2,84.6z"/>
		<path class="st3" d="M853.9,79.1c0-3.4-0.1-6.3-0.2-9h4.6l0.2,5.7h0.2c1.3-3.9,4.5-6.3,8.1-6.3c0.5,0,1,0,1.5,0.2v5
			c-0.6-0.1-1.2-0.2-1.8-0.2c-3.7,0-6.3,2.8-7.1,6.8c-0.1,0.8-0.2,1.6-0.2,2.5V99h-5.2V79.1z"/>
		<path class="st3" d="M881.3,61.7V70h7.6v4h-7.6v15.7c0,3.6,1,5.7,4,5.7c1,0,2.1-0.1,3.1-0.4l0.2,4c-1.5,0.5-3.1,0.8-4.7,0.7
			c-2.1,0.1-4.2-0.7-5.7-2.2c-1.5-1.6-2-4.2-2-7.6V74h-4.5v-4h4.5v-7L881.3,61.7z"/>
		<path class="st3" d="M910.9,99l-0.5-3.7h-0.2c-2.1,2.8-5.4,4.4-8.9,4.3c-5.9,0-8.9-4.2-8.9-8.3c0-7,6.2-10.9,17.4-10.8v-0.6
			c0-2.3-0.7-6.7-6.6-6.7c-2.7,0-5.3,0.7-7.6,2.2l-1.2-3.5c2.9-1.7,6.2-2.6,9.6-2.5c8.9,0,11,6.1,11,11.9v10.9
			c0,2.3,0.1,4.6,0.4,6.9L910.9,99z M910.1,84.2c-5.7-0.1-12.2,0.9-12.2,6.5c0,3.5,2.3,5.1,4.9,5.1c3.2,0.1,6-1.9,7.1-4.9
			c0.2-0.5,0.3-1.1,0.2-1.7V84.2z"/>
		<path class="st3" d="M929.8,61.7V70h7.6v4h-7.6v15.7c0,3.6,1,5.7,4,5.7c1,0,2.1-0.1,3.1-0.4l0.2,4c-1.5,0.5-3.1,0.8-4.7,0.7
			c-2.1,0.1-4.2-0.7-5.7-2.2c-1.5-1.6-2-4.2-2-7.6V74h-4.5v-4h4.5v-7L929.8,61.7z"/>
		<path class="st3" d="M949.2,61.8c0.1,1.8-1.3,3.2-3.1,3.3c-0.1,0-0.2,0-0.3,0c-1.7,0-3.2-1.4-3.2-3.1c0-0.1,0-0.1,0-0.2
			c-0.1-1.8,1.3-3.2,3.1-3.3c0.1,0,0.1,0,0.2,0c1.7,0,3.2,1.3,3.2,3.1C949.2,61.7,949.2,61.8,949.2,61.8z M943.3,99V70h5.2v29H943.3
			z"/>
		<path class="st3" d="M983.6,84.2c0,10.7-7.5,15.4-14.4,15.4c-7.9,0-14-5.7-14-14.9c0-9.7,6.4-15.4,14.4-15.4
			C978,69.4,983.6,75.4,983.6,84.2z M960.6,84.6c0,6.4,3.7,11.2,8.8,11.2s8.8-4.7,8.8-11.3c0-4.9-2.5-11.1-8.8-11.1
			S960.6,79.1,960.6,84.6L960.6,84.6z"/>
		<path class="st3" d="M990.3,77.9c0-3-0.1-5.4-0.2-7.8h4.7l0.3,4.8h0.1c2-3.4,5.6-5.5,9.6-5.4c4,0,10.2,2.4,10.2,12.4V99h-5.2V82.3
			c0-4.7-1.8-8.6-6.7-8.6c-3.3,0.1-6.2,2.3-7.1,5.4c-0.2,0.8-0.4,1.6-0.4,2.4V99h-5.2L990.3,77.9z"/>
	</g>
</g>
</svg>
